<svg xmlns="http://www.w3.org/2000/svg" viewBox="0 0 1024 256" role="img" aria-label="Diao Chan ribbon attack sprite strip">
  <defs>
    <g id="diao">
      <circle cx="126" cy="60" r="19" fill="#1b1714"/>
      <path d="M110 82c-38 34-46 78-25 132 43 17 83 11 120-18-5-54-37-96-95-114z" fill="#2f7c6e" opacity="0.9"/>
      <path d="M98 110c39 18 76 16 111-6" stroke="#efe2c3" stroke-width="12" stroke-linecap="round"/>
    </g>
  </defs>
  <g transform="translate(0 0)">
    <use href="#diao"/>
    <path d="M42 142c68-42 125-42 171 0" stroke="#2f7c6e" stroke-width="10" stroke-linecap="round" fill="none"/>
  </g>
  <g transform="translate(256 0)">
    <use href="#diao" transform="translate(12 -2)"/>
    <path d="M33 130c68-80 137-77 207 7" stroke="#2f7c6e" stroke-width="13" stroke-linecap="round" fill="none"/>
  </g>
  <g transform="translate(512 0)">
    <use href="#diao" transform="translate(22 -8)"/>
    <path d="M22 152c91-94 167-84 229 30" stroke="#2f7c6e" stroke-width="15" stroke-linecap="round" fill="none"/>
    <path d="M82 194c63-38 119-39 169-5" stroke="#7f1f1a" stroke-width="10" stroke-linecap="round" fill="none"/>
  </g>
  <g transform="translate(768 0)">
    <use href="#diao" transform="translate(6 5)"/>
    <path d="M38 150c74-34 136-29 186 16" stroke="#111" stroke-width="8" stroke-linecap="round" fill="none" opacity="0.5"/>
  </g>
</svg>
