<svg xmlns="http://www.w3.org/2000/svg" viewBox="0 0 2048 512" role="img" aria-label="Ink Dong Zhuo boss four frame attack strip">
  <rect width="2048" height="512" fill="none"/>
  <defs>
    <radialGradient id="bossInk" cx=".45" cy=".35" r=".68">
      <stop offset="0" stop-color="#4b1a18"/>
      <stop offset=".62" stop-color="#151313"/>
      <stop offset="1" stop-color="#020202"/>
    </radialGradient>
    <g id="palaceShadow">
      <path d="M50 399h405" stroke="#0c0c0c" stroke-width="16" stroke-linecap="round" opacity=".18"/>
      <path d="M76 369h64V191h-34v-31h302v31h-35v178h64v34H76z" fill="#111111" opacity=".17"/>
      <path d="M114 161l144-74 146 74z" fill="#111111" opacity=".2"/>
    </g>
    <g id="dongzhuoBoss">
      <ellipse cx="253" cy="445" rx="154" ry="23" fill="#111111" opacity=".22"/>
      <path d="M208 90c32-38 93-32 116 11 16 30 6 70-23 88-34 21-79 8-96-28-11-23-10-49 3-71z" fill="url(#bossInk)" opacity=".96"/>
      <path d="M121 390c14-104 46-181 105-229 70 29 122 104 159 217-61 54-178 61-264 12z" fill="url(#bossInk)" opacity=".92"/>
      <path d="M176 207c-64 31-111 75-144 132" fill="none" stroke="#111111" stroke-width="26" stroke-linecap="round" opacity=".82"/>
      <path d="M330 205c62 36 109 85 143 147" fill="none" stroke="#111111" stroke-width="27" stroke-linecap="round" opacity=".82"/>
      <path d="M171 386c-25 36-53 66-88 91M337 380c24 39 53 69 90 91" fill="none" stroke="#111111" stroke-width="26" stroke-linecap="round" opacity=".72"/>
      <path d="M185 197c48 20 96 20 145 0" fill="none" stroke="#8d251f" stroke-width="10" stroke-linecap="round" opacity=".72"/>
    </g>
    <g id="bossChains">
      <path d="M59 239c70 10 142 5 216-14 62-15 118-15 169 1" fill="none" stroke="#e6d3b3" stroke-width="9" stroke-linecap="round" stroke-dasharray="20 15" opacity=".55"/>
      <path d="M78 284c88 12 169 7 244-17 48-15 89-18 123-9" fill="none" stroke="#7c201c" stroke-width="12" stroke-linecap="round" stroke-dasharray="22 18" opacity=".6"/>
    </g>
  </defs>
  <g transform="translate(0 0)">
    <use href="#palaceShadow"/>
    <use href="#dongzhuoBoss"/>
    <use href="#bossChains"/>
    <path d="M78 360c89-37 195-39 319-6" fill="none" stroke="#111111" stroke-width="12" stroke-linecap="round" opacity=".3"/>
  </g>
  <g transform="translate(512 0)">
    <use href="#palaceShadow" transform="translate(-12 0)"/>
    <use href="#dongzhuoBoss" transform="translate(-26 -4) scale(1.03 1)"/>
    <use href="#bossChains" transform="translate(0 -20)"/>
    <path d="M35 371c112-99 250-128 415-86" fill="none" stroke="#5d1816" stroke-width="23" stroke-linecap="round" opacity=".77"/>
    <path d="M77 398c111-64 233-82 366-53" fill="none" stroke="#e6d3b3" stroke-width="8" stroke-linecap="round" opacity=".5"/>
    <path d="M343 134c55 43 91 94 109 153" fill="none" stroke="#8d251f" stroke-width="15" stroke-linecap="round" opacity=".5"/>
  </g>
  <g transform="translate(1024 0)">
    <use href="#palaceShadow" transform="translate(-22 0)"/>
    <use href="#dongzhuoBoss" transform="translate(-52 -7) scale(1.07 1.02)"/>
    <use href="#bossChains" transform="translate(18 -38)"/>
    <path d="M24 405c128-183 285-251 471-204" fill="none" stroke="#4b1110" stroke-width="35" stroke-linecap="round" opacity=".9"/>
    <path d="M73 414c135-129 272-184 410-165" fill="none" stroke="#ead7b9" stroke-width="10" stroke-linecap="round" opacity=".68"/>
    <path d="M305 81c91 60 146 129 166 206" fill="none" stroke="#8d251f" stroke-width="22" stroke-linecap="round" opacity=".63"/>
    <path d="M397 112l53 45-37 58 58 45" fill="none" stroke="#151313" stroke-width="18" stroke-linecap="round" stroke-linejoin="round" opacity=".65"/>
    <circle cx="438" cy="172" r="33" fill="#6f1d1a" opacity=".54"/>
  </g>
  <g transform="translate(1536 0)">
    <use href="#palaceShadow"/>
    <use href="#dongzhuoBoss" transform="translate(-3 5)"/>
    <use href="#bossChains" transform="translate(0 7)" opacity=".72"/>
    <path d="M75 366c94-42 205-45 333-8" fill="none" stroke="#111111" stroke-width="12" stroke-linecap="round" opacity=".27"/>
    <path d="M337 145c49 33 84 80 107 138" fill="none" stroke="#6f1d1a" stroke-width="12" stroke-linecap="round" opacity=".35"/>
  </g>
</svg>
