<svg xmlns="http://www.w3.org/2000/svg" viewBox="0 0 1024 256" role="img" aria-label="Zhao Yun spear attack sprite strip">
  <defs>
    <g id="zhao">
      <circle cx="108" cy="64" r="20" fill="#1b1714"/>
      <path d="M96 84c-34 38-42 81-23 130 43 18 83 16 121-7-2-55-26-96-98-123z" fill="#b7352a" opacity="0.9"/>
      <path d="M96 106c32 20 65 23 100 9" stroke="#efe2c3" stroke-width="13" stroke-linecap="round"/>
    </g>
  </defs>
  <g transform="translate(0 0)">
    <use href="#zhao"/>
    <path d="M40 150h180" stroke="#2c2924" stroke-width="9" stroke-linecap="round"/>
  </g>
  <g transform="translate(256 0)">
    <use href="#zhao" transform="translate(16 -4)"/>
    <path d="M32 158c72-48 136-66 192-54" stroke="#7f1f1a" stroke-width="12" stroke-linecap="round" fill="none"/>
  </g>
  <g transform="translate(512 0)">
    <use href="#zhao" transform="translate(34 -8)"/>
    <path d="M18 166c88-91 164-117 226-78" stroke="#7f1f1a" stroke-width="16" stroke-linecap="round" fill="none"/>
    <path d="M176 72l56-24-24 58z" fill="#2c2924"/>
  </g>
  <g transform="translate(768 0)">
    <use href="#zhao" transform="translate(8 4)"/>
    <path d="M34 170c76-44 141-48 196-11" stroke="#2c2924" stroke-width="8" stroke-linecap="round" fill="none" opacity="0.55"/>
  </g>
</svg>
