<svg xmlns="http://www.w3.org/2000/svg" viewBox="0 0 640 900" role="img" aria-labelledby="title desc">
  <title>Luan Xin tangled heart</title>
  <desc>An unstable heart line knots into black brushwork and broken rings.</desc>
  <rect width="640" height="900" rx="34" fill="#efe4cc"/>
  <path d="M320 556c-86-61-136-111-136-178 0-42 30-75 72-75 27 0 49 14 64 38 15-24 37-38 64-38 42 0 72 33 72 75 0 67-50 117-136 178z" fill="#111615" opacity=".7"/>
  <path d="M177 441c91-118 184-119 278-4 47 57 54 110 22 159-27 41-73 52-138 34-87-23-116-79-87-168" fill="none" stroke="#111615" stroke-width="17" stroke-linecap="round" opacity=".78"/>
  <path d="M237 378 422 525M401 345 236 556M183 646c85-30 176-21 273 27" fill="none" stroke="#111615" stroke-width="10" stroke-linecap="round" opacity=".38"/>
  <path d="M246 235c64-28 130-26 198 6" fill="none" stroke="#b2473d" stroke-width="9" stroke-linecap="round" opacity=".35"/>
  <circle cx="452" cy="527" r="42" fill="#111615" opacity=".12"/>
</svg>
