<svg xmlns="http://www.w3.org/2000/svg" viewBox="0 0 512 512" role="img" aria-label="Zhuge Liang formation shield card art">
  <rect width="512" height="512" fill="#eee5d3"/>
  <path d="M54 392C126 312 206 262 320 236c58-14 96-38 132-82" fill="none" stroke="#1f3f44" stroke-width="28" stroke-linecap="round" opacity=".22"/>
  <path d="M128 150c66 18 142 18 226 0 10 76 0 142-46 200-26 32-58 56-96 74-39-18-72-42-98-74-45-58-56-124-46-200z" fill="#f8f1df" stroke="#2d3a3a" stroke-width="12"/>
  <path d="M174 248h116M198 292h88M225 194l58 116" fill="none" stroke="#b38a39" stroke-width="10" stroke-linecap="round" opacity=".85"/>
  <path d="M154 190c41 24 80 36 117 36 39 0 75-12 109-36" fill="none" stroke="#1f6a71" stroke-width="9" stroke-linecap="round" opacity=".82"/>
  <path d="M142 345c47 20 95 30 145 28" fill="none" stroke="#263536" stroke-width="8" stroke-linecap="round" opacity=".58"/>
  <circle cx="368" cy="132" r="36" fill="none" stroke="#b38a39" stroke-width="8" opacity=".72"/>
</svg>
