<svg xmlns="http://www.w3.org/2000/svg" viewBox="0 0 512 512" role="img" aria-label="Diao Chan Lingbo step petal footwork card art">
  <rect width="512" height="512" fill="#eee5d3"/>
  <path d="M76 353c73-83 163-130 270-139" fill="none" stroke="#2b6d70" stroke-width="25" stroke-linecap="round" opacity=".22"/>
  <path d="M126 358c41-47 95-71 162-72 45-1 86-17 124-48" fill="none" stroke="#1f6a71" stroke-width="14" stroke-linecap="round"/>
  <path d="M131 399c58 12 115 2 171-31M214 246c52 11 101 3 148-24" fill="none" stroke="#b38a39" stroke-width="8" stroke-linecap="round" opacity=".76"/>
  <path d="M163 328c22-12 43-10 64 6-16 20-38 27-64 21zM263 273c17-18 39-24 66-17-9 24-27 38-54 41zM352 210c11-20 28-31 52-33-3 25-16 42-39 49z" fill="#f4d6d1" stroke="#b2473d" stroke-width="6" opacity=".84"/>
  <path d="M107 168c88 24 174 17 259-22" fill="none" stroke="#b2473d" stroke-width="11" stroke-linecap="round" opacity=".62"/>
  <circle cx="196" cy="382" r="31" fill="none" stroke="#d7e8e4" stroke-width="8" opacity=".82"/>
</svg>
