<svg xmlns="http://www.w3.org/2000/svg" viewBox="0 0 640 900" role="img" aria-labelledby="title desc">
  <title id="title">Zhao Yun seven-star spear card art</title>
  <desc id="desc">Seven golden stars follow spear afterimages across ink rain.</desc>
  <defs>
    <linearGradient id="paper" x1="0" x2="0" y1="0" y2="1">
      <stop offset="0" stop-color="#fbf3de"/>
      <stop offset="1" stop-color="#dfd0ae"/>
    </linearGradient>
    <linearGradient id="gold" x1="0" x2="1" y1="0" y2="1">
      <stop offset="0" stop-color="#fff1a8"/>
      <stop offset=".55" stop-color="#d2a540"/>
      <stop offset="1" stop-color="#815d17"/>
    </linearGradient>
  </defs>
  <rect width="640" height="900" rx="34" fill="url(#paper)"/>
  <path d="M66 740c139-109 244-226 314-351 45-80 94-142 148-187" fill="none" stroke="#111" stroke-width="72" stroke-linecap="round" opacity=".07"/>
  <path d="M110 702c122-106 233-224 334-354" fill="none" stroke="#1b1d1c" stroke-width="18" stroke-linecap="round" opacity=".32"/>
  <path d="M136 724c110-112 216-229 320-352M95 657c128-101 252-202 373-302M174 765c90-120 185-246 286-378" fill="none" stroke="url(#gold)" stroke-width="11" stroke-linecap="round" opacity=".74"/>
  <path d="M470 338 556 230" fill="none" stroke="#2c2b27" stroke-width="20" stroke-linecap="round"/>
  <path d="m563 202-18 74 65-25" fill="url(#gold)" stroke="#2c2b27" stroke-width="10" stroke-linejoin="round"/>
  <g fill="url(#gold)" stroke="#7b5616" stroke-width="5">
    <circle cx="163" cy="676" r="15"/>
    <circle cx="220" cy="610" r="13"/>
    <circle cx="281" cy="538" r="16"/>
    <circle cx="338" cy="468" r="12"/>
    <circle cx="395" cy="398" r="15"/>
    <circle cx="451" cy="330" r="13"/>
    <circle cx="510" cy="260" r="17"/>
  </g>
  <path d="M114 266c67-20 137-16 210 13M83 339c47 20 101 24 162 10M387 705c47-15 89-42 125-80" fill="none" stroke="#171a18" stroke-width="13" stroke-linecap="round" opacity=".2"/>
</svg>
