<svg xmlns="http://www.w3.org/2000/svg" viewBox="0 0 640 900" role="img" aria-labelledby="title desc">
  <title id="title">Zhuge Liang stone array card art</title>
  <desc id="desc">A stone formation wall stands inside a teal bagua ring on ink paper.</desc>
  <defs>
    <radialGradient id="stone" cx="50%" cy="45%" r="60%">
      <stop offset="0" stop-color="#80c9c1" stop-opacity="0.55"/>
      <stop offset="1" stop-color="#f7f0df" stop-opacity="0"/>
    </radialGradient>
  </defs>
  <rect width="640" height="900" rx="34" fill="#f7f0df"/>
  <rect width="640" height="900" rx="34" fill="url(#stone)"/>
  <circle cx="320" cy="448" r="213" fill="none" stroke="#1f8d8a" stroke-width="13" opacity="0.58"/>
  <circle cx="320" cy="448" r="146" fill="none" stroke="#111111" stroke-width="6" opacity="0.16"/>
  <path d="M320 235v95M320 565v96M107 448h96M438 448h95M169 297l68 68M404 532l68 68M471 296l-68 68M237 532l-68 68" fill="none" stroke="#1f8d8a" stroke-width="9" stroke-linecap="round" opacity="0.58"/>
  <path d="M190 562c19-92 43-171 72-236 44-19 88-19 132 0 32 68 53 147 64 237-87 40-176 40-268-1Z" fill="#5f655f" opacity="0.82"/>
  <path d="M228 543c20-72 43-133 68-184M331 552c3-83 2-154-5-214M414 544c-12-72-31-134-56-185" fill="none" stroke="#f7f0df" stroke-width="6" opacity="0.37"/>
  <path d="M177 636c92 40 194 45 306 14" fill="none" stroke="#111111" stroke-width="9" stroke-linecap="round" opacity="0.14"/>
</svg>
