<svg xmlns="http://www.w3.org/2000/svg" viewBox="0 0 640 900" role="img" aria-labelledby="title desc">
  <title>Jing Xin still heart</title>
  <desc>A still heart rests inside a clear teal water ring.</desc>
  <rect width="640" height="900" rx="34" fill="#f5ecd8"/>
  <circle cx="320" cy="446" r="184" fill="none" stroke="#1f6971" stroke-width="18" opacity=".42"/>
  <circle cx="320" cy="446" r="126" fill="none" stroke="#263232" stroke-width="10" opacity=".14"/>
  <path d="M320 539c-77-55-122-99-122-158 0-37 27-68 64-68 25 0 45 12 58 35 13-23 33-35 58-35 37 0 64 31 64 68 0 59-45 103-122 158z" fill="#1f6971" opacity=".62"/>
  <path d="M242 426c52 26 104 26 156 0" fill="none" stroke="#f7f2e2" stroke-width="10" stroke-linecap="round" opacity=".72"/>
  <path d="M163 640c101 34 207 34 315 0M203 272c72-36 151-45 237-28" fill="none" stroke="#1f6971" stroke-width="9" stroke-linecap="round" opacity=".2"/>
  <circle cx="320" cy="446" r="24" fill="#f7f2e2" opacity=".88"/>
</svg>
