<svg xmlns="http://www.w3.org/2000/svg" viewBox="0 0 640 900" role="img" aria-labelledby="title desc">
  <title id="title">Cai Wenji five tones start card art</title>
  <desc id="desc">Five golden tone seals awaken above a guqin in pale ink mist.</desc>
  <defs>
    <radialGradient id="goldGlow" cx="50%" cy="38%" r="62%">
      <stop offset="0" stop-color="#f0c76a" stop-opacity="0.72"/>
      <stop offset="1" stop-color="#f7f0df" stop-opacity="0"/>
    </radialGradient>
  </defs>
  <rect width="640" height="900" rx="34" fill="#f7f0df"/>
  <rect width="640" height="900" rx="34" fill="url(#goldGlow)"/>
  <path d="M102 592c128-62 310-68 424-14 33 16 34 58 0 73-126 58-310 58-428-2-36-18-33-38 4-57Z" fill="#2a2319" opacity="0.84"/>
  <path d="M143 616c98-30 253-35 363-7M143 646c95-19 246-24 352-6" fill="none" stroke="#f7f0df" stroke-width="5" stroke-linecap="round" opacity="0.54"/>
  <circle cx="166" cy="344" r="38" fill="#c99a32" opacity="0.82"/>
  <circle cx="240" cy="268" r="34" fill="#c99a32" opacity="0.72"/>
  <circle cx="324" cy="332" r="42" fill="#c99a32" opacity="0.88"/>
  <circle cx="413" cy="261" r="35" fill="#c99a32" opacity="0.74"/>
  <circle cx="486" cy="350" r="39" fill="#c99a32" opacity="0.8"/>
  <path d="M149 343c15-12 28-12 43 0M306 331c23-19 42-19 63 1M469 349c16-12 31-12 47 0" fill="none" stroke="#fff8de" stroke-width="8" stroke-linecap="round" opacity="0.7"/>
  <path d="M171 438c89-42 202-41 340 3" fill="none" stroke="#c99a32" stroke-width="14" stroke-linecap="round" opacity="0.55"/>
  <path d="M206 465c81-24 177-23 288 3" fill="none" stroke="#111111" stroke-width="5" stroke-linecap="round" opacity="0.16"/>
</svg>
