<svg xmlns="http://www.w3.org/2000/svg" viewBox="0 0 512 512" role="img" aria-label="Diao Chan fan strike red silk ink card art">
  <rect width="512" height="512" fill="#eee5d3"/>
  <path d="M77 338c108-62 223-84 345-67" fill="none" stroke="#6f2e36" stroke-width="28" stroke-linecap="round" opacity=".18"/>
  <path d="M142 314c54-87 122-135 204-146 32 42 50 90 54 145-79 29-164 29-258 1z" fill="#f8f1df" stroke="#2d3a3a" stroke-width="11" stroke-linejoin="round"/>
  <path d="M173 294c35-50 85-82 151-99M218 306c25-43 63-76 116-99M266 307c12-39 35-71 70-95" fill="none" stroke="#b2473d" stroke-width="9" stroke-linecap="round"/>
  <path d="M86 386c98-18 194-53 287-104" fill="none" stroke="#b2473d" stroke-width="15" stroke-linecap="round" opacity=".84"/>
  <path d="M283 193 402 120" fill="none" stroke="#263536" stroke-width="11" stroke-linecap="round"/>
  <circle cx="170" cy="159" r="11" fill="#b2473d" opacity=".68"/>
  <circle cx="214" cy="135" r="7" fill="#b38a39" opacity=".65"/>
</svg>
