<svg xmlns="http://www.w3.org/2000/svg" viewBox="0 0 640 900" role="img" aria-labelledby="title desc">
  <title id="title">Zhuge Liang plan set card art</title>
  <desc id="desc">A golden chess piece fixes a plan beside a sealed scroll on paper.</desc>
  <defs>
    <radialGradient id="plan" cx="47%" cy="39%" r="61%">
      <stop offset="0" stop-color="#efc46c" stop-opacity="0.7"/>
      <stop offset="1" stop-color="#f7f0df" stop-opacity="0"/>
    </radialGradient>
  </defs>
  <rect width="640" height="900" rx="34" fill="#f7f0df"/>
  <rect width="640" height="900" rx="34" fill="url(#plan)"/>
  <path d="M128 577c95-46 253-53 387-23 26 66 12 111-42 136-124 28-241 18-350-30-21-34-19-62 5-83Z" fill="#ead8ac" stroke="#2a2117" stroke-width="9" opacity="0.86"/>
  <path d="M184 604c83-18 180-18 291 1M184 647c78 19 165 21 260 7" fill="none" stroke="#111111" stroke-width="5" opacity="0.19"/>
  <circle cx="310" cy="401" r="70" fill="#c99835" opacity="0.86"/>
  <path d="M256 482c39 23 80 23 123 0 19 34 26 70 22 108-54 20-111 18-171-5-3-36 5-71 26-103Z" fill="#c99835" opacity="0.82"/>
  <path d="M253 401c38-30 76-30 114 0M263 525c39 18 78 20 119 5" fill="none" stroke="#fff6d0" stroke-width="9" stroke-linecap="round" opacity="0.64"/>
  <path d="M419 293c54 36 80 84 79 144-61-9-105-43-132-103 13-21 30-35 53-41Z" fill="#f8f0dc" stroke="#c99835" stroke-width="7"/>
  <circle cx="479" cy="450" r="22" fill="#b63a2d" opacity="0.72"/>
</svg>
