<svg xmlns="http://www.w3.org/2000/svg" viewBox="0 0 640 900" role="img" aria-labelledby="title desc">
  <title>Hei Yu black rain</title>
  <desc>Black rain falls into dream mist and spreads into dark pools.</desc>
  <rect width="640" height="900" rx="34" fill="#efe5ce"/>
  <path d="M94 662c111-70 226-92 346-65 52 12 94 9 126-9" fill="none" stroke="#111615" stroke-width="48" stroke-linecap="round" opacity=".18"/>
  <path d="M124 693c102-42 201-44 297-4 48 20 86 20 115 0" fill="none" stroke="#111615" stroke-width="26" stroke-linecap="round" opacity=".55"/>
  <path d="M178 149v210M270 116v254M374 132v224M474 166v208M532 278v156" stroke="#171d1c" stroke-width="13" stroke-linecap="round" opacity=".68"/>
  <path d="M178 360c22 30 44 30 66 0M374 356c24 31 48 31 72 0" fill="none" stroke="#1f6971" stroke-width="8" stroke-linecap="round" opacity=".24"/>
  <circle cx="302" cy="553" r="88" fill="#151a19" opacity=".22"/>
  <circle cx="303" cy="553" r="42" fill="#111615" opacity=".55"/>
</svg>
