<svg xmlns="http://www.w3.org/2000/svg" viewBox="0 0 640 900" role="img" aria-labelledby="title desc">
  <title id="title">Cai Wenji listen still card art</title>
  <desc id="desc">A quiet listening silhouette rests beside a still teal sound ripple.</desc>
  <defs>
    <radialGradient id="still" cx="48%" cy="48%" r="60%">
      <stop offset="0" stop-color="#85d4cb" stop-opacity="0.58"/>
      <stop offset="1" stop-color="#f7f0df" stop-opacity="0"/>
    </radialGradient>
  </defs>
  <rect width="640" height="900" rx="34" fill="#f7f0df"/>
  <rect width="640" height="900" rx="34" fill="url(#still)"/>
  <path d="M0 726c114-74 219-78 316-13 95 64 203 65 324 3v184H0Z" fill="#111111" opacity="0.08"/>
  <circle cx="281" cy="338" r="48" fill="#151515" opacity="0.72"/>
  <path d="M221 436c34-72 101-87 157-29 43 44 65 105 66 184-87 39-185 36-294-8 8-62 32-111 71-147Z" fill="#151515" opacity="0.72"/>
  <path d="M349 319c36 18 59 51 70 98M384 294c58 31 92 79 103 145M206 603c70 36 169 39 295 8" fill="none" stroke="#1e8f8b" stroke-width="11" stroke-linecap="round" opacity="0.58"/>
  <path d="M138 650c120 47 252 51 395 12M107 699c152 49 310 49 476 0" fill="none" stroke="#1e8f8b" stroke-width="7" stroke-linecap="round" opacity="0.34"/>
  <path d="M166 240c-28 101-14 185 43 252M481 223c25 99 5 180-60 244" fill="none" stroke="#111111" stroke-width="6" stroke-linecap="round" opacity="0.1"/>
</svg>
