<svg xmlns="http://www.w3.org/2000/svg" viewBox="0 0 640 900" role="img" aria-labelledby="title desc">
  <title id="title">Cai Wenji broken string card art</title>
  <desc id="desc">A broken qin string cuts outward through teal rain and soft ink wash.</desc>
  <defs>
    <radialGradient id="tealGlow" cx="52%" cy="38%" r="58%">
      <stop offset="0" stop-color="#7fc7bd" stop-opacity="0.7"/>
      <stop offset="1" stop-color="#f7f0df" stop-opacity="0"/>
    </radialGradient>
  </defs>
  <rect width="640" height="900" rx="34" fill="#f7f0df"/>
  <rect width="640" height="900" rx="34" fill="url(#tealGlow)"/>
  <path d="M62 166c142-64 354-66 514-8" fill="none" stroke="#111111" stroke-width="23" stroke-linecap="round" opacity="0.12"/>
  <path d="M124 514c92-58 282-88 400-48 34 12 39 58 7 78-118 72-312 80-422 14-34-20-24-30 15-44Z" fill="#27221b" opacity="0.84"/>
  <path d="M146 522c99-38 260-52 364-24" fill="none" stroke="#f7f0df" stroke-width="6" stroke-linecap="round" opacity="0.45"/>
  <path d="M163 546c96-36 235-44 330-22" fill="none" stroke="#1d8f8d" stroke-width="5" stroke-linecap="round"/>
  <path d="M138 572c70-28 155-39 252-34" fill="none" stroke="#1d8f8d" stroke-width="4" stroke-linecap="round" opacity="0.7"/>
  <path d="M391 540 548 392" fill="none" stroke="#1d8f8d" stroke-width="9" stroke-linecap="round"/>
  <path d="M400 549 587 435" fill="none" stroke="#111111" stroke-width="3" stroke-linecap="round" opacity="0.62"/>
  <path d="M428 503c26 4 52 18 71 40" fill="none" stroke="#1d8f8d" stroke-width="8" stroke-linecap="round" opacity="0.42"/>
  <circle cx="548" cy="392" r="13" fill="#1d8f8d" opacity="0.8"/>
  <path d="M210 214c-34 88-30 173 13 255M478 208c22 95 6 178-49 248" fill="none" stroke="#111111" stroke-width="5" stroke-linecap="round" opacity="0.12"/>
</svg>
