<svg xmlns="http://www.w3.org/2000/svg" viewBox="0 0 640 900" role="img" aria-labelledby="title desc">
  <title id="title">Zhao Yun thrust card art</title>
  <desc id="desc">A red spear thrust pierces straight through slanted rain.</desc>
  <defs>
    <linearGradient id="paper" x1="0" x2="1" y1="0" y2="1">
      <stop offset="0" stop-color="#fbf0d8"/>
      <stop offset="1" stop-color="#d8c8ad"/>
    </linearGradient>
    <linearGradient id="red" x1="0" x2="1" y1="1" y2="0">
      <stop offset="0" stop-color="#6f1413"/>
      <stop offset=".5" stop-color="#d83b2d"/>
      <stop offset="1" stop-color="#ffd0a0"/>
    </linearGradient>
  </defs>
  <rect width="640" height="900" rx="34" fill="url(#paper)"/>
  <g stroke="#111617" stroke-width="10" stroke-linecap="round" opacity=".15">
    <path d="M88 167 31 256M177 116 93 250M292 100 203 243M415 116 330 252M543 142 456 278M590 331 495 475M453 586 372 710M292 631 226 739"/>
  </g>
  <path d="M97 691 523 237" fill="none" stroke="#1c1d1b" stroke-width="28" stroke-linecap="round"/>
  <path d="M124 663 497 266" fill="none" stroke="url(#red)" stroke-width="14" stroke-linecap="round"/>
  <path d="m543 214-37 95 87-42z" fill="#f8eee2" stroke="#1c1d1b" stroke-width="11" stroke-linejoin="round"/>
  <path d="M247 547c67-35 137-48 211-38" fill="none" stroke="#c32e29" stroke-width="34" stroke-linecap="round" opacity=".26"/>
  <path d="M207 589c84-41 168-56 254-44" fill="none" stroke="#c32e29" stroke-width="15" stroke-linecap="round" opacity=".48"/>
  <path d="M132 748c112 36 248 28 409-24M85 307c67 5 126-8 178-40" fill="none" stroke="#161a19" stroke-width="15" stroke-linecap="round" opacity=".18"/>
  <circle cx="504" cy="257" r="82" fill="none" stroke="#d13c30" stroke-width="13" opacity=".24"/>
</svg>
