<svg xmlns="http://www.w3.org/2000/svg" viewBox="0 0 640 900" role="img" aria-labelledby="title desc">
  <title id="title">Unwritten page card art</title>
  <desc id="desc">A blank page tears open as black ink rises around a red seal.</desc>
  <defs>
    <linearGradient id="paper" x1="0" x2="1" y1="0" y2="1"><stop offset="0" stop-color="#f2e5cf"/><stop offset="1" stop-color="#cbb89b"/></linearGradient>
  </defs>
  <rect width="640" height="900" rx="34" fill="url(#paper)"/>
  <path d="M203 134h260l-32 536H178z" fill="#f7edd9" stroke="#151817" stroke-width="13"/>
  <path d="M189 638c91-69 190-64 298 14 23 17 42 28 58 34v93H93v-91c28-2 60-18 96-50z" fill="#121414" opacity=".88"/>
  <path d="M242 279c59-17 120-17 183 0M238 365c68-20 135-20 202 0M236 451c61-16 123-16 187 0" stroke="#151817" stroke-width="13" stroke-linecap="round" opacity=".18"/>
  <rect x="382" y="520" width="82" height="82" rx="10" fill="#b32a2a" opacity=".75" transform="rotate(-8 423 561)"/>
  <path d="M156 726c94 42 202 39 324-10" fill="none" stroke="#b32a2a" stroke-width="15" stroke-linecap="round" opacity=".48"/>
</svg>
