<svg xmlns="http://www.w3.org/2000/svg" viewBox="0 0 640 900" role="img" aria-labelledby="title desc">
  <title id="title">Zhao Yun cloud dragon pierce card art</title>
  <desc id="desc">A white dragon cloud coils around a red spear thrust.</desc>
  <defs>
    <linearGradient id="paper" x1="0" x2="1" y1="0" y2="1"><stop offset="0" stop-color="#fbf0d8"/><stop offset="1" stop-color="#d7c5a5"/></linearGradient>
    <linearGradient id="spear" x1="0" x2="1"><stop offset="0" stop-color="#6f1413"/><stop offset="1" stop-color="#ef5d42"/></linearGradient>
  </defs>
  <rect width="640" height="900" rx="34" fill="url(#paper)"/>
  <path d="M84 660C198 507 352 372 556 248" fill="none" stroke="#111617" stroke-width="30" stroke-linecap="round"/>
  <path d="M109 641C229 500 371 378 535 278" fill="none" stroke="url(#spear)" stroke-width="14" stroke-linecap="round"/>
  <path d="M161 522c88-122 209-174 332-150 56 11 88 45 75 77-17 43-91 48-148 22" fill="none" stroke="#f8f2e8" stroke-width="34" stroke-linecap="round" opacity=".9"/>
  <path d="M143 704c139 32 277 11 415-61M92 282c76-28 151-30 225-6" fill="none" stroke="#1f6f72" stroke-width="15" stroke-linecap="round" opacity=".24"/>
  <circle cx="502" cy="304" r="74" fill="none" stroke="#d53b2f" stroke-width="12" opacity=".22"/>
</svg>
