<svg xmlns="http://www.w3.org/2000/svg" viewBox="0 0 640 900" role="img" aria-labelledby="title desc">
  <title id="title">Zhao Yun stable formation card art</title>
  <desc id="desc">A teal spear square locks into a guarded battlefield stance.</desc>
  <defs>
    <linearGradient id="paper" x1="0" x2="1" y1="0" y2="1">
      <stop offset="0" stop-color="#fbf1dc"/>
      <stop offset="1" stop-color="#ddcfb1"/>
    </linearGradient>
    <linearGradient id="teal" x1="0" x2="1" y1="1" y2="0">
      <stop offset="0" stop-color="#146b72"/>
      <stop offset="1" stop-color="#9de4d5"/>
    </linearGradient>
  </defs>
  <rect width="640" height="900" rx="34" fill="url(#paper)"/>
  <path d="M136 203h368v420H136z" fill="#111817" opacity=".05"/>
  <path d="M154 243h332v332H154z" fill="none" stroke="#172120" stroke-width="19" opacity=".26"/>
  <path d="M188 277h264v264H188z" fill="none" stroke="url(#teal)" stroke-width="16" opacity=".72"/>
  <path d="M320 160v525M101 424h438M169 274l301 301M471 274 170 575" fill="none" stroke="#202828" stroke-width="13" stroke-linecap="round" opacity=".44"/>
  <path d="M320 159v525M101 424h438" fill="none" stroke="url(#teal)" stroke-width="7" stroke-linecap="round"/>
  <path d="M258 657c25-58 61-90 108-96 30 35 43 76 37 124-48 22-96 13-145-28z" fill="#f8fbef" opacity=".8"/>
  <path d="M253 657c31-56 70-86 117-89" fill="none" stroke="#171b1b" stroke-width="18" stroke-linecap="round" opacity=".28"/>
  <path d="M110 718c117 28 256 30 419 6M87 765c72 25 151 32 237 19M401 210c49-18 91-18 126 1" fill="none" stroke="#151b1a" stroke-width="13" stroke-linecap="round" opacity=".18"/>
  <circle cx="320" cy="424" r="150" fill="none" stroke="url(#teal)" stroke-width="15" opacity=".22"/>
</svg>
