<svg xmlns="http://www.w3.org/2000/svg" viewBox="0 0 512 512" role="img" aria-label="Diao Chan guarded dance ribbon screen card art">
  <rect width="512" height="512" fill="#eee5d3"/>
  <path d="M82 158c87 42 207 43 347 2" fill="none" stroke="#8d3942" stroke-width="22" stroke-linecap="round" opacity=".25"/>
  <path d="M111 351c65-88 149-145 253-171 28 54 25 111-9 172-74 32-156 32-244-1z" fill="#f8f1df" stroke="#2d3a3a" stroke-width="11" stroke-linejoin="round"/>
  <path d="M130 208c76 48 168 48 277 0" fill="none" stroke="#b2473d" stroke-width="18" stroke-linecap="round" opacity=".8"/>
  <path d="M104 287c95-46 197-48 306-6" fill="none" stroke="#b38a39" stroke-width="9" stroke-linecap="round" opacity=".76"/>
  <path d="M197 356c36-39 57-90 64-153M273 360c19-48 24-97 15-147" fill="none" stroke="#6f2e36" stroke-width="8" stroke-linecap="round" opacity=".82"/>
  <path d="M365 118a54 54 0 1 0 0 85" fill="none" stroke="#b38a39" stroke-width="8" stroke-linecap="round" opacity=".72"/>
</svg>
