<svg xmlns="http://www.w3.org/2000/svg" viewBox="0 0 640 900" role="img" aria-labelledby="title desc">
  <title id="title">Diao Chan red ribbon card art</title>
  <desc id="desc">A crimson ribbon knot hooks and pulls hostile intent marks.</desc>
  <defs>
    <linearGradient id="paper" x1="0" x2="1" y1="0" y2="1">
      <stop offset="0" stop-color="#fbefdd"/>
      <stop offset="1" stop-color="#dac4a3"/>
    </linearGradient>
    <linearGradient id="red" x1="0" x2="1" y1="0" y2="1">
      <stop offset="0" stop-color="#ffb18b"/>
      <stop offset=".5" stop-color="#d43134"/>
      <stop offset="1" stop-color="#751219"/>
    </linearGradient>
  </defs>
  <rect width="640" height="900" rx="34" fill="url(#paper)"/>
  <path d="M152 350c124-58 222-44 294 43 38 46 77 59 118 39-13 76-59 116-139 121-83 5-155-24-217-88-40-41-83-54-129-40 8-32 32-57 73-75z" fill="url(#red)" opacity=".64"/>
  <path d="M92 703c109-128 219-208 331-240 56-16 108-10 155 19-39 60-96 91-172 92-79 1-164 44-255 129-20 19-40 19-59 0z" fill="url(#red)" opacity=".48"/>
  <circle cx="320" cy="463" r="48" fill="#761318" opacity=".78"/>
  <path d="M270 442c29-37 65-41 108-12 2 42-19 68-64 78-39-11-54-33-44-66z" fill="#f6e5d0" opacity=".6"/>
  <path d="M151 351c90-31 169-18 236 40 67 59 127 74 180 45M95 702c100-101 203-169 309-202 58-19 112-14 162 16" fill="none" stroke="#7b1418" stroke-width="18" stroke-linecap="round"/>
  <path d="M464 319c39 2 72 24 100 66M525 378c25-4 46 5 63 27" fill="none" stroke="#171615" stroke-width="13" stroke-linecap="round" opacity=".25"/>
  <path d="M126 232c46 30 98 42 157 35M101 783c106 30 231 29 374-3M486 661c35 25 71 31 107 18" fill="none" stroke="#151716" stroke-width="14" stroke-linecap="round" opacity=".17"/>
</svg>
