<svg xmlns="http://www.w3.org/2000/svg" viewBox="0 0 512 512" role="img" aria-label="Cai Wenji pluck string teal sound waves card art">
  <rect width="512" height="512" fill="#eee5d3"/>
  <path d="M72 366c86-74 190-110 312-108" fill="none" stroke="#1f6a71" stroke-width="28" stroke-linecap="round" opacity=".2"/>
  <path d="M102 334c100 20 203 21 309 3 18-3 29-23 21-39-8-18-28-28-48-23-88 21-176 21-264 0-22-5-42 9-46 31-3 17 9 25 28 28z" fill="#f8f1df" stroke="#2d3a3a" stroke-width="10"/>
  <path d="M129 299c74 18 164 19 271 2M130 321c80 14 169 14 266 0" fill="none" stroke="#1f6a71" stroke-width="7" stroke-linecap="round"/>
  <path d="M271 298c24-42 54-72 90-91" fill="none" stroke="#b38a39" stroke-width="10" stroke-linecap="round"/>
  <path d="M331 181c28 17 49 40 64 69M296 160c42 22 75 57 98 105M258 150c59 30 103 76 132 138" fill="none" stroke="#7bb7b5" stroke-width="9" stroke-linecap="round" opacity=".82"/>
  <circle cx="260" cy="298" r="14" fill="#b38a39" opacity=".78"/>
</svg>
