<svg xmlns="http://www.w3.org/2000/svg" viewBox="0 0 640 900" role="img" aria-labelledby="title desc">
  <title id="title">Zhuge Liang empty city card art</title>
  <desc id="desc">An empty gate, a calm feather fan, and distant enemy shadows sit in teal mist.</desc>
  <defs>
    <linearGradient id="cityMist" x1="0" y1="190" x2="640" y2="760" gradientUnits="userSpaceOnUse">
      <stop offset="0" stop-color="#f7f0df"/>
      <stop offset="1" stop-color="#6bbdb5" stop-opacity="0.52"/>
    </linearGradient>
  </defs>
  <rect width="640" height="900" rx="34" fill="url(#cityMist)"/>
  <path d="M117 620V357h406v263M165 357v-76h310v76M224 620V449c0-58 44-99 96-99s96 41 96 99v171" fill="none" stroke="#181818" stroke-width="18" stroke-linecap="round" stroke-linejoin="round" opacity="0.72"/>
  <path d="M91 699c151-45 307-44 468 2" fill="none" stroke="#1e8f8b" stroke-width="14" stroke-linecap="round" opacity="0.55"/>
  <path d="M441 505c42-20 77-17 106 10M87 513c38-18 71-15 100 9" fill="none" stroke="#111111" stroke-width="12" stroke-linecap="round" opacity="0.18"/>
  <path d="M258 291c76-55 143-55 201 1" fill="none" stroke="#1e8f8b" stroke-width="9" stroke-linecap="round" opacity="0.58"/>
  <path d="M354 252c64 29 95 78 93 148-58-16-99-57-123-123 10-15 20-23 30-25Z" fill="#f8f1df" stroke="#1e8f8b" stroke-width="7"/>
  <path d="M372 280c30 21 46 51 48 89" fill="none" stroke="#111111" stroke-width="4" opacity="0.26"/>
</svg>
