<svg xmlns="http://www.w3.org/2000/svg" viewBox="0 0 512 512" role="img" aria-label="Cai Wenji qin string slash card art">
  <rect width="512" height="512" fill="#eee5d3"/>
  <path d="M86 335c97-63 204-93 322-89" fill="none" stroke="#2b6d70" stroke-width="26" stroke-linecap="round" opacity=".2"/>
  <path d="M112 325 394 186" fill="none" stroke="#263536" stroke-width="12" stroke-linecap="round"/>
  <path d="M102 363c93-20 196-21 309-5 20 3 36-13 31-32-5-20-24-33-45-30-94 12-188 8-282-14-23-6-44 12-42 36 1 20 13 40 29 45z" fill="#f8f1df" stroke="#2d3a3a" stroke-width="10"/>
  <path d="M141 323c75 17 155 22 240 16M145 344c78 12 158 16 240 10" fill="none" stroke="#1f6a71" stroke-width="7" stroke-linecap="round" opacity=".86"/>
  <path d="M120 196c77 58 171 77 282 58" fill="none" stroke="#b38a39" stroke-width="9" stroke-linecap="round" opacity=".74"/>
  <path d="M168 164c26 31 61 48 104 51" fill="none" stroke="#b2473d" stroke-width="8" stroke-linecap="round" opacity=".64"/>
</svg>
