<svg xmlns="http://www.w3.org/2000/svg" viewBox="0 0 640 900" role="img" aria-labelledby="title desc">
  <title>Ge Dang crossed guard</title>
  <desc>Crossed guard strokes meet over a translucent teal shield wash.</desc>
  <defs>
    <radialGradient id="paper" cx="52%" cy="45%" r="72%">
      <stop offset="0" stop-color="#fbf5e7"/>
      <stop offset="1" stop-color="#e7dbc1"/>
    </radialGradient>
  </defs>
  <rect width="640" height="900" rx="34" fill="url(#paper)"/>
  <path d="M320 184C454 253 530 359 520 504c-9 128-89 225-200 274-111-49-191-146-200-274-10-145 66-251 200-320z" fill="#1f6971" opacity=".16"/>
  <path d="M160 651 480 254M149 263l342 384" fill="none" stroke="#263232" stroke-width="28" stroke-linecap="round"/>
  <path d="M190 622 451 298M180 298l282 316" fill="none" stroke="#eaf4ee" stroke-width="10" stroke-linecap="round" opacity=".72"/>
  <path d="M203 449c77-57 160-73 251-49" fill="none" stroke="#2d8790" stroke-width="18" stroke-linecap="round" opacity=".78"/>
  <circle cx="320" cy="450" r="68" fill="none" stroke="#2d8790" stroke-width="12" opacity=".58"/>
  <path d="M210 736c70 28 148 28 220 0" fill="none" stroke="#263232" stroke-width="10" stroke-linecap="round" opacity=".22"/>
</svg>
