<svg xmlns="http://www.w3.org/2000/svg" viewBox="0 0 320 420" role="img" aria-label="Diao Chan ink portrait">
  <defs>
    <radialGradient id="wash" cx="50%" cy="40%" r="60%">
      <stop offset="0" stop-color="#f6ecd5"/>
      <stop offset="1" stop-color="#d8c7a3"/>
    </radialGradient>
    <linearGradient id="teal" x1="0" x2="1">
      <stop offset="0" stop-color="#2f7c6e"/>
      <stop offset="1" stop-color="#9fcbbd"/>
    </linearGradient>
  </defs>
  <rect width="320" height="420" fill="url(#wash)"/>
  <path d="M51 344c75-48 176-42 220 7-60 36-154 39-220-7Z" fill="#111" opacity=".14"/>
  <path d="M159 48c31 12 44 36 40 71 37 22 55 69 54 143-43 38-128 37-170-3 2-70 23-117 61-141-8-36-3-58 15-70Z" fill="#2c2924"/>
  <path d="M129 96c27-18 62-16 82 5 4 32-26 59-62 50-28-12-35-34-20-55Z" fill="#efe2c3" opacity=".9"/>
  <path d="M91 165c45 42 99 49 160 18 6 59-1 111-23 155-43 21-92 20-137-2-22-55-22-112 0-171Z" fill="#f6ecd5"/>
  <path d="M102 182c38 29 82 34 132 10 17 47 16 94-5 141-45 24-91 23-138-3-5-52-1-101 11-148Z" fill="url(#teal)" opacity=".85"/>
  <path d="M91 112c30 8 54 5 72-11 24 18 52 23 83 13-39-31-92-39-155-2Z" fill="#111" opacity=".9"/>
  <path d="M69 180c56 3 100 24 133 65" fill="none" stroke="#2f7c6e" stroke-width="8" stroke-linecap="round" opacity=".7"/>
  <path d="M244 163c-47 12-83 40-108 84" fill="none" stroke="#2f7c6e" stroke-width="7" stroke-linecap="round" opacity=".62"/>
  <path d="M49 119c48-20 116-30 218-4" fill="none" stroke="#111" stroke-width="10" stroke-linecap="round" opacity=".16"/>
</svg>
