<svg xmlns="http://www.w3.org/2000/svg" viewBox="0 0 320 420" role="img" aria-label="Faceless soldier portrait">
  <rect width="320" height="420" fill="#e8d7b6"/>
  <path d="M49 349c68-43 169-43 221 2-61 38-155 39-221-2Z" fill="#111" opacity=".18"/>
  <path d="M159 56c35 12 53 43 49 91 42 38 56 101 41 188-56 21-115 21-178 0-14-86 3-149 45-187-5-49 9-79 43-92Z" fill="#24211d"/>
  <path d="M121 110c30-19 65-17 89 4-5 33-38 54-75 42-25-10-30-25-14-46Z" fill="#efe2c3" opacity=".32"/>
  <path d="M129 122c25-14 51-13 74 1-13 11-24 16-36 16-14 0-26-5-38-17Z" fill="#d8c7a3"/>
  <path d="M88 185c48 34 101 40 159 18" fill="none" stroke="#111" stroke-width="13" stroke-linecap="round" opacity=".55"/>
  <path d="M104 218c35 19 74 20 119 2 7 43 1 84-17 124-37 12-75 11-113-2-11-48-8-89 11-124Z" fill="#34302a"/>
  <path d="M82 129c46-35 107-43 181-19" fill="none" stroke="#111" stroke-width="12" stroke-linecap="round" opacity=".24"/>
</svg>
