<svg xmlns="http://www.w3.org/2000/svg" viewBox="0 0 320 420" role="img" aria-label="Ink Dong Zhuo portrait">
  <rect width="320" height="420" fill="#e8d7b6"/>
  <path d="M36 352c75-59 185-58 249 0-77 35-171 36-249 0Z" fill="#111" opacity=".22"/>
  <path d="M159 45c59 26 74 68 44 124 51 37 74 95 70 174-68 30-143 30-220 1-6-82 19-141 71-177-35-55-23-96 35-122Z" fill="#111"/>
  <path d="M108 116c41-31 90-28 124 8-16 45-70 59-112 29-17-13-21-25-12-37Z" fill="#efe2c3" opacity=".16"/>
  <path d="M72 200c58 35 121 40 189 12 18 45 11 88-19 130-56 19-111 18-167-3-23-51-24-98-3-139Z" fill="#2c2924"/>
  <path d="M64 118c62-46 134-53 217-22" fill="none" stroke="#111" stroke-width="19" stroke-linecap="round" opacity=".55"/>
  <path d="M67 144c59 28 127 33 204 16" fill="none" stroke="#7f1f1a" stroke-width="12" stroke-linecap="round" opacity=".55"/>
  <path d="M90 236c43 21 92 22 145 3" fill="none" stroke="#d45a3c" stroke-width="8" stroke-linecap="round" opacity=".34"/>
</svg>
